<?xml version="1.0" encoding="iso-8859-1"?>
<!-- Generator: Adobe Illustrator 19.0.0, SVG Export Plug-In . SVG Version: 6.00 Build 0)  -->
<svg version="1.1" id="Capa_1" xmlns="http://www.w3.org/2000/svg" xmlns:xlink="http://www.w3.org/1999/xlink" x="0px" y="0px"
	 viewBox="0 0 512 512" style="enable-background:new 0 0 512 512;" xml:space="preserve">
<g>
	<g transform="translate(1 1)">
		<path style="fill:#283593;" d="M451.267,50.2v315.733c-0.028,9.414-7.652,17.039-17.067,17.067H24.6
			c-9.414-0.028-17.039-7.653-17.067-17.067V50.2c0.069-9.135,7.26-16.625,16.384-17.067H434.2
			C443.614,33.161,451.239,40.786,451.267,50.2z"/>
		<path style="fill:#3F51B5;" d="M425.667,50.2v315.733c-0.028,9.414-7.652,17.039-17.067,17.067h-384
			c-9.414-0.028-17.039-7.653-17.067-17.067V50.2c0.069-9.135,7.26-16.625,16.384-17.067H408.6
			C418.014,33.161,425.639,40.786,425.667,50.2z"/>
		<path style="fill:#CFD8DC;" d="M229.4,33.133v309.333c0.324-14.952-11.503-27.351-26.453-27.733H41.667V24.6
			c0.028-9.414,7.652-17.039,17.067-17.067H203.8c6.792-0.009,13.309,2.685,18.112,7.488
			C226.715,19.824,229.409,26.341,229.4,33.133z"/>
		<g>
			<path style="fill:#607D8B;" d="M229.4,342.467v6.4H41.667v-34.133h161.28C217.897,315.116,229.724,327.515,229.4,342.467z"/>
			<path style="fill:#607D8B;" d="M417.133,24.6v290.133h-25.6V24.6c-0.027-9.414-7.652-17.039-17.067-17.067h25.6
				C409.481,7.561,417.106,15.186,417.133,24.6z"/>
		</g>
		<path style="fill:#CFD8DC;" d="M391.533,24.6v290.133h-135.68c-14.95,0.383-26.777,12.782-26.453,27.733V33.133
			c-0.009-6.792,2.685-13.309,7.488-18.112S248.208,7.524,255,7.533h119.467C383.881,7.561,391.506,15.186,391.533,24.6z"/>
		<path style="fill:#607D8B;" d="M229.4,342.467v6.4h187.733v-34.133h-161.28C240.903,315.116,229.076,327.515,229.4,342.467z"/>
		<polygon style="fill:#FFEB3A;" points="144.067,152.6 109.933,109.933 75.8,152.6 75.8,7.533 144.067,7.533 		"/>
		<path style="fill:#4CAF50;" d="M434.2,203.8H383c-18.107-0.005-35.474,7.186-48.277,19.989
			c-12.804,12.804-19.994,30.17-19.989,48.277V434.2c-0.005,18.107,7.186,35.474,19.989,48.277
			c12.804,12.804,30.17,19.994,48.277,19.989h51.2c18.107,0.005,35.474-7.186,48.277-19.989
			c12.804-12.804,19.994-30.17,19.989-48.277V272.067c0.005-18.107-7.186-35.474-19.989-48.277
			C469.674,210.986,452.307,203.795,434.2,203.8z"/>
		<path style="fill:#2E7D32;" d="M502.467,272.067V331.8H408.6v-128h25.6c18.107-0.005,35.474,7.186,48.277,19.989
			C495.281,236.593,502.472,253.96,502.467,272.067z"/>
		<path style="fill:#4CAF50;" d="M476.867,272.067V331.8H408.6v-128c18.107-0.005,35.474,7.186,48.277,19.989
			C469.681,236.593,476.872,253.96,476.867,272.067z"/>
		<path style="fill:#00695C;" d="M502.467,331.8v102.4c0.005,18.107-7.186,35.474-19.989,48.277
			c-12.804,12.804-30.17,19.994-48.277,19.989H383c-18.107,0.005-35.474-7.186-48.277-19.989
			c-12.804-12.804-19.994-30.17-19.989-48.277V331.8H502.467z"/>
		<path style="fill:#009688;" d="M476.867,331.8v102.4c0.005,18.107-7.186,35.474-19.989,48.277
			c-12.804,12.804-30.17,19.994-48.277,19.989H383c-18.107,0.005-35.474-7.186-48.277-19.989
			c-12.804-12.804-19.994-30.17-19.989-48.277V331.8H476.867z"/>
	</g>
	<path d="M460.8,200.748V51.2c-0.015-14.132-11.468-25.585-25.6-25.6h-8.533c-0.015-14.132-11.468-25.585-25.6-25.6H256
		c-9.841,0.032-19.182,4.337-25.6,11.796C223.982,4.337,214.641,0.032,204.8,0H59.733c-14.132,0.015-25.585,11.468-25.6,25.6H25.6
		C11.468,25.615,0.015,37.068,0,51.2v315.733c0.015,14.132,11.468,25.585,25.6,25.6h281.6V435.2
		c0.049,42.395,34.405,76.751,76.8,76.8h51.2c42.395-0.049,76.751-34.405,76.8-76.8V273.067
		C511.943,240.559,491.442,211.602,460.8,200.748z M435.2,42.667c4.71,0.006,8.527,3.823,8.533,8.533v145.57
		c-2.833-0.326-5.682-0.494-8.533-0.503h-8.533v-153.6H435.2z M324.267,324.267v-51.2c0.037-32.974,26.759-59.696,59.733-59.733
		h17.067v110.933H324.267z M51.2,324.267h152.788c9.391,0.329,17.019,7.693,17.678,17.067H51.2V324.267z M307.2,341.333h-68.066
		c0.671-9.384,8.317-16.748,17.72-17.067H307.2V341.333z M256,17.067h145.067c4.71,0.006,8.527,3.823,8.533,8.533v170.667H384
		c-42.395,0.049-76.751,34.405-76.8,76.8V307.2h-50.346c-6.352,0.038-12.565,1.871-17.921,5.286V34.133
		C238.943,24.712,246.578,17.076,256,17.067z M136.533,17.067v112.208l-18.938-23.671c-1.618-2.025-4.07-3.204-6.662-3.204
		c-2.592,0-5.044,1.179-6.662,3.204l-18.938,23.671V17.067H136.533z M51.2,25.6c0.006-4.71,3.823-8.527,8.533-8.533h8.533V153.6
		c-0.002,3.625,2.287,6.854,5.708,8.054s7.225,0.107,9.488-2.725l27.471-34.337l27.471,34.337c1.618,2.026,4.07,3.205,6.662,3.204
		c2.264,0.002,4.435-0.897,6.036-2.497c1.601-1.601,2.499-3.772,2.497-6.036V17.067h51.2c9.422,0.009,17.057,7.645,17.067,17.067
		v278.34c-5.344-3.407-11.542-5.235-17.879-5.274H51.2V25.6z M25.6,375.467c-4.71-0.006-8.527-3.823-8.533-8.533V51.2
		c0.006-4.71,3.823-8.527,8.533-8.533h8.533v307.2c0,4.713,3.821,8.533,8.533,8.533H307.2v17.067H25.6z M435.2,494.933H384
		c-32.974-0.037-59.696-26.759-59.733-59.733v-93.867h170.667V435.2C494.896,468.174,468.174,494.896,435.2,494.933z
		 M494.933,324.267h-76.8V213.333H435.2c32.974,0.037,59.696,26.759,59.733,59.733V324.267z"/>
</g>
<g>
</g>
<g>
</g>
<g>
</g>
<g>
</g>
<g>
</g>
<g>
</g>
<g>
</g>
<g>
</g>
<g>
</g>
<g>
</g>
<g>
</g>
<g>
</g>
<g>
</g>
<g>
</g>
<g>
</g>
</svg>
